<svg xmlns="http://www.w3.org/2000/svg" xmlns:xlink="http://www.w3.org/1999/xlink" aria-hidden="true" role="img" class="iconify iconify--logos" width="31.88" height="32" preserveAspectRatio="xMidYMid meet" viewBox="0 0 128 128">
<path d="M37.048 13.448C30.16 13.6667 24.8573 16.2907 21.14 21.32C17.532 26.3493 15.728 35.0413 15.728 47.396C15.728 51.4413 16.1107 54.284 16.876 55.924C17.6413 57.4547 18.024 58.3293 18.024 58.548C12.12 58.548 7.692 57.3453 4.74 54.94C1.89733 52.4253 0.476 48.3253 0.476 42.64C0.476 34.8773 2.38933 27.8253 6.216 21.484C10.0427 15.0333 16.1107 9.83999 24.42 5.90399C32.8387 1.96799 43.4987 -9.77516e-06 56.4 -9.77516e-06C59.024 -9.77516e-06 62.5227 0.273323 66.896 0.819989C74.768 1.58533 80.344 1.96799 83.624 1.96799C89.4187 1.96799 94.3387 1.31199 98.384 -9.77516e-06C98.056 0.983991 97.4547 3.17066 96.58 6.55999C95.7053 9.84 94.12 12.6827 91.824 15.088C89.6373 17.384 86.6307 18.9147 82.804 19.68C76.3533 19.68 68.7 18.6413 59.844 16.564L52.956 49.2H76.9L74.276 61.336H50.332L37.048 123H13.432L37.048 13.448ZM98.2174 123.656C90.1268 123.656 83.7308 121.579" fill="#FF7426"
fill-opacity="0.85" />
<text x="70" y="120" font-size="128" fill="#FF7426" fill-opacity="0.85">.</text>
</svg>
